<mxfile host="app.diagrams.net" modified="2021-01-30T12:46:07.939Z" agent="5.0 (Macintosh; Intel Mac OS X 10_15_6) AppleWebKit/605.1.15 (KHTML, like Gecko) Version/14.0.1 Safari/605.1.15" etag="94tjVR24j9P6UrfRTUZG" version="14.1.9" type="github">
  <diagram name="Page-1" id="197159a0-c6a4-9194-75a8-e4174976684c">
    <mxGraphModel dx="788" dy="456" grid="1" gridSize="10" guides="1" tooltips="1" connect="1" arrows="1" fold="1" page="1" pageScale="1.5" pageWidth="1169" pageHeight="826" background="none" math="0" shadow="0">
      <root>
        <mxCell id="0" style=";html=1;" />
        <mxCell id="1" style=";html=1;" parent="0" />
        <mxCell id="DUt0sESxxQH2__tYui9F-33" style="edgeStyle=orthogonalEdgeStyle;orthogonalLoop=1;jettySize=auto;html=1;entryX=0.25;entryY=1;entryDx=0;entryDy=0;exitX=0.25;exitY=0;exitDx=0;exitDy=0;sketch=1;" edge="1" parent="1" source="DUt0sESxxQH2__tYui9F-6" target="DUt0sESxxQH2__tYui9F-31">
          <mxGeometry relative="1" as="geometry" />
        </mxCell>
        <mxCell id="DUt0sESxxQH2__tYui9F-6" value="统一身份认证" style="whiteSpace=wrap;html=1;fillColor=#f8cecc;strokeColor=#b85450;verticalAlign=middle;rounded=1;sketch=1;" vertex="1" parent="1">
          <mxGeometry x="840" y="160" width="120" height="40" as="geometry" />
        </mxCell>
        <mxCell id="DUt0sESxxQH2__tYui9F-15" style="edgeStyle=orthogonalEdgeStyle;orthogonalLoop=1;jettySize=auto;html=1;entryX=0.5;entryY=1;entryDx=0;entryDy=0;exitX=0.088;exitY=0;exitDx=0;exitDy=0;exitPerimeter=0;sketch=1;" edge="1" parent="1" target="DUt0sESxxQH2__tYui9F-8">
          <mxGeometry relative="1" as="geometry">
            <mxPoint x="518.8399999999999" y="400" as="sourcePoint" />
          </mxGeometry>
        </mxCell>
        <mxCell id="DUt0sESxxQH2__tYui9F-16" style="edgeStyle=orthogonalEdgeStyle;orthogonalLoop=1;jettySize=auto;html=1;entryX=0.75;entryY=1;entryDx=0;entryDy=0;sketch=1;exitX=0.785;exitY=0;exitDx=0;exitDy=0;exitPerimeter=0;" edge="1" parent="1">
          <mxGeometry relative="1" as="geometry">
            <mxPoint x="706" y="200" as="targetPoint" />
            <mxPoint x="706.8000000000002" y="400" as="sourcePoint" />
            <Array as="points">
              <mxPoint x="707" y="300" />
            </Array>
          </mxGeometry>
        </mxCell>
        <mxCell id="DUt0sESxxQH2__tYui9F-60" style="edgeStyle=orthogonalEdgeStyle;rounded=0;sketch=1;orthogonalLoop=1;jettySize=auto;html=1;entryX=0.5;entryY=1;entryDx=0;entryDy=0;exitX=0.905;exitY=-0.071;exitDx=0;exitDy=0;exitPerimeter=0;" edge="1" parent="1" target="DUt0sESxxQH2__tYui9F-59">
          <mxGeometry relative="1" as="geometry">
            <mxPoint x="994.4000000000001" y="397.1600000000001" as="sourcePoint" />
          </mxGeometry>
        </mxCell>
        <mxCell id="DUt0sESxxQH2__tYui9F-7" value="PKI(sqlite、TF)" style="whiteSpace=wrap;html=1;fillColor=#d5e8d4;strokeColor=#82b366;rounded=1;sketch=1;" vertex="1" parent="1">
          <mxGeometry x="400" y="400" width="680" height="40" as="geometry" />
        </mxCell>
        <mxCell id="DUt0sESxxQH2__tYui9F-8" value="Fido" style="whiteSpace=wrap;html=1;fillColor=#f8cecc;strokeColor=#b85450;rounded=1;sketch=1;" vertex="1" parent="1">
          <mxGeometry x="459" y="160" width="120" height="40" as="geometry" />
        </mxCell>
        <mxCell id="DUt0sESxxQH2__tYui9F-46" style="edgeStyle=orthogonalEdgeStyle;rounded=0;sketch=1;orthogonalLoop=1;jettySize=auto;html=1;entryX=0;entryY=0.5;entryDx=0;entryDy=0;" edge="1" parent="1" source="DUt0sESxxQH2__tYui9F-10" target="DUt0sESxxQH2__tYui9F-6">
          <mxGeometry relative="1" as="geometry" />
        </mxCell>
        <mxCell id="DUt0sESxxQH2__tYui9F-10" value="证书助手" style="whiteSpace=wrap;html=1;fillColor=#f8cecc;strokeColor=#b85450;rounded=1;sketch=1;" vertex="1" parent="1">
          <mxGeometry x="640" y="160" width="80" height="40" as="geometry" />
        </mxCell>
        <mxCell id="DUt0sESxxQH2__tYui9F-30" style="edgeStyle=orthogonalEdgeStyle;orthogonalLoop=1;jettySize=auto;html=1;entryX=0.238;entryY=0.975;entryDx=0;entryDy=0;entryPerimeter=0;sketch=1;" edge="1" parent="1" source="DUt0sESxxQH2__tYui9F-18" target="DUt0sESxxQH2__tYui9F-10">
          <mxGeometry relative="1" as="geometry" />
        </mxCell>
        <mxCell id="DUt0sESxxQH2__tYui9F-18" value="&lt;font color=&quot;#000000&quot;&gt;CDS&lt;/font&gt;" style="whiteSpace=wrap;html=1;fillColor=#fff2cc;strokeColor=#d6b656;rounded=1;sketch=1;" vertex="1" parent="1">
          <mxGeometry x="619" y="241" width="80" height="40" as="geometry" />
        </mxCell>
        <mxCell id="DUt0sESxxQH2__tYui9F-22" style="edgeStyle=orthogonalEdgeStyle;orthogonalLoop=1;jettySize=auto;html=1;entryX=0.5;entryY=1;entryDx=0;entryDy=0;sketch=1;" edge="1" parent="1" source="DUt0sESxxQH2__tYui9F-20" target="DUt0sESxxQH2__tYui9F-6">
          <mxGeometry relative="1" as="geometry" />
        </mxCell>
        <mxCell id="DUt0sESxxQH2__tYui9F-20" value="IDaaS" style="whiteSpace=wrap;html=1;fillColor=#dae8fc;strokeColor=#6c8ebf;rounded=1;sketch=1;" vertex="1" parent="1">
          <mxGeometry x="860" y="319" width="80" height="40" as="geometry" />
        </mxCell>
        <mxCell id="DUt0sESxxQH2__tYui9F-32" style="edgeStyle=orthogonalEdgeStyle;orthogonalLoop=1;jettySize=auto;html=1;entryX=0.75;entryY=0;entryDx=0;entryDy=0;exitX=0.75;exitY=1;exitDx=0;exitDy=0;sketch=1;" edge="1" parent="1" source="DUt0sESxxQH2__tYui9F-31" target="DUt0sESxxQH2__tYui9F-6">
          <mxGeometry relative="1" as="geometry" />
        </mxCell>
        <mxCell id="DUt0sESxxQH2__tYui9F-31" value="统一身份认证" style="whiteSpace=wrap;html=1;fillColor=#f8cecc;strokeColor=#b85450;verticalAlign=middle;rounded=1;sketch=1;" vertex="1" parent="1">
          <mxGeometry x="840" y="40" width="120" height="40" as="geometry" />
        </mxCell>
        <mxCell id="DUt0sESxxQH2__tYui9F-48" value="相互&lt;br&gt;认证" style="ellipse;shape=umlControl;whiteSpace=wrap;html=1;rounded=1;dashed=1;dashPattern=1 1;sketch=1;" vertex="1" parent="1">
          <mxGeometry x="880" y="90" width="40" height="50" as="geometry" />
        </mxCell>
        <mxCell id="DUt0sESxxQH2__tYui9F-55" style="edgeStyle=orthogonalEdgeStyle;rounded=0;sketch=1;orthogonalLoop=1;jettySize=auto;html=1;" edge="1" parent="1" source="DUt0sESxxQH2__tYui9F-49">
          <mxGeometry relative="1" as="geometry">
            <mxPoint x="900" y="213" as="targetPoint" />
          </mxGeometry>
        </mxCell>
        <mxCell id="DUt0sESxxQH2__tYui9F-49" value="OAuth" style="ellipse;whiteSpace=wrap;html=1;rounded=1;sketch=1;fillColor=#f5f5f5;strokeColor=#666666;fontColor=#333333;" vertex="1" parent="1">
          <mxGeometry x="780" y="194.5" width="50" height="37" as="geometry" />
        </mxCell>
        <mxCell id="DUt0sESxxQH2__tYui9F-56" style="edgeStyle=orthogonalEdgeStyle;rounded=0;sketch=1;orthogonalLoop=1;jettySize=auto;html=1;" edge="1" parent="1" source="DUt0sESxxQH2__tYui9F-53">
          <mxGeometry relative="1" as="geometry">
            <mxPoint x="900" y="260" as="targetPoint" />
          </mxGeometry>
        </mxCell>
        <mxCell id="DUt0sESxxQH2__tYui9F-53" value="SMS" style="ellipse;whiteSpace=wrap;html=1;rounded=1;sketch=1;fillColor=#f5f5f5;strokeColor=#666666;fontColor=#333333;" vertex="1" parent="1">
          <mxGeometry x="780" y="241.5" width="50" height="37" as="geometry" />
        </mxCell>
        <mxCell id="DUt0sESxxQH2__tYui9F-57" style="edgeStyle=orthogonalEdgeStyle;rounded=0;sketch=1;orthogonalLoop=1;jettySize=auto;html=1;" edge="1" parent="1" source="DUt0sESxxQH2__tYui9F-54">
          <mxGeometry relative="1" as="geometry">
            <mxPoint x="900" y="309" as="targetPoint" />
          </mxGeometry>
        </mxCell>
        <mxCell id="DUt0sESxxQH2__tYui9F-54" value="社会化" style="ellipse;whiteSpace=wrap;html=1;rounded=1;sketch=1;fillColor=#f5f5f5;strokeColor=#666666;fontColor=#333333;" vertex="1" parent="1">
          <mxGeometry x="780" y="290.5" width="50" height="37" as="geometry" />
        </mxCell>
        <mxCell id="DUt0sESxxQH2__tYui9F-61" style="edgeStyle=orthogonalEdgeStyle;rounded=0;sketch=1;orthogonalLoop=1;jettySize=auto;html=1;" edge="1" parent="1" source="DUt0sESxxQH2__tYui9F-59">
          <mxGeometry relative="1" as="geometry">
            <mxPoint x="900" y="238.5" as="targetPoint" />
          </mxGeometry>
        </mxCell>
        <mxCell id="DUt0sESxxQH2__tYui9F-59" value="CAS" style="ellipse;whiteSpace=wrap;html=1;rounded=1;sketch=1;fillColor=#f5f5f5;strokeColor=#666666;fontColor=#333333;" vertex="1" parent="1">
          <mxGeometry x="970" y="220" width="50" height="37" as="geometry" />
        </mxCell>
        <mxCell id="DUt0sESxxQH2__tYui9F-65" style="edgeStyle=orthogonalEdgeStyle;rounded=0;sketch=1;orthogonalLoop=1;jettySize=auto;html=1;" edge="1" parent="1" source="DUt0sESxxQH2__tYui9F-62">
          <mxGeometry relative="1" as="geometry">
            <mxPoint x="996" y="279.5" as="targetPoint" />
          </mxGeometry>
        </mxCell>
        <mxCell id="DUt0sESxxQH2__tYui9F-62" value="人脸" style="ellipse;whiteSpace=wrap;html=1;rounded=1;sketch=1;fillColor=#f5f5f5;strokeColor=#666666;fontColor=#333333;" vertex="1" parent="1">
          <mxGeometry x="1063" y="261" width="50" height="37" as="geometry" />
        </mxCell>
        <mxCell id="DUt0sESxxQH2__tYui9F-66" style="edgeStyle=orthogonalEdgeStyle;rounded=0;sketch=1;orthogonalLoop=1;jettySize=auto;html=1;" edge="1" parent="1" source="DUt0sESxxQH2__tYui9F-63">
          <mxGeometry relative="1" as="geometry">
            <mxPoint x="996" y="326.5" as="targetPoint" />
          </mxGeometry>
        </mxCell>
        <mxCell id="DUt0sESxxQH2__tYui9F-63" value="虹膜" style="ellipse;whiteSpace=wrap;html=1;rounded=1;sketch=1;fillColor=#f5f5f5;strokeColor=#666666;fontColor=#333333;" vertex="1" parent="1">
          <mxGeometry x="1063" y="308" width="50" height="37" as="geometry" />
        </mxCell>
        <mxCell id="DUt0sESxxQH2__tYui9F-67" style="edgeStyle=orthogonalEdgeStyle;rounded=0;sketch=1;orthogonalLoop=1;jettySize=auto;html=1;" edge="1" parent="1" source="DUt0sESxxQH2__tYui9F-64">
          <mxGeometry relative="1" as="geometry">
            <mxPoint x="996" y="375.5000000000001" as="targetPoint" />
          </mxGeometry>
        </mxCell>
        <mxCell id="DUt0sESxxQH2__tYui9F-64" value="指纹" style="ellipse;whiteSpace=wrap;html=1;rounded=1;sketch=1;fillColor=#f5f5f5;strokeColor=#666666;fontColor=#333333;" vertex="1" parent="1">
          <mxGeometry x="1063" y="357" width="50" height="37" as="geometry" />
        </mxCell>
        <mxCell id="DUt0sESxxQH2__tYui9F-71" style="edgeStyle=orthogonalEdgeStyle;rounded=0;sketch=1;orthogonalLoop=1;jettySize=auto;html=1;" edge="1" parent="1" source="DUt0sESxxQH2__tYui9F-68">
          <mxGeometry relative="1" as="geometry">
            <mxPoint x="520" y="250" as="targetPoint" />
          </mxGeometry>
        </mxCell>
        <mxCell id="DUt0sESxxQH2__tYui9F-68" value="人脸" style="ellipse;whiteSpace=wrap;html=1;rounded=1;sketch=1;fillColor=#f5f5f5;strokeColor=#666666;fontColor=#333333;" vertex="1" parent="1">
          <mxGeometry x="400" y="231.5" width="50" height="37" as="geometry" />
        </mxCell>
        <mxCell id="DUt0sESxxQH2__tYui9F-72" style="edgeStyle=orthogonalEdgeStyle;rounded=0;sketch=1;orthogonalLoop=1;jettySize=auto;html=1;" edge="1" parent="1" source="DUt0sESxxQH2__tYui9F-69">
          <mxGeometry relative="1" as="geometry">
            <mxPoint x="520" y="297" as="targetPoint" />
          </mxGeometry>
        </mxCell>
        <mxCell id="DUt0sESxxQH2__tYui9F-69" value="虹膜" style="ellipse;whiteSpace=wrap;html=1;rounded=1;sketch=1;fillColor=#f5f5f5;strokeColor=#666666;fontColor=#333333;" vertex="1" parent="1">
          <mxGeometry x="400" y="278.5" width="50" height="37" as="geometry" />
        </mxCell>
        <mxCell id="DUt0sESxxQH2__tYui9F-73" style="edgeStyle=orthogonalEdgeStyle;rounded=0;sketch=1;orthogonalLoop=1;jettySize=auto;html=1;" edge="1" parent="1" source="DUt0sESxxQH2__tYui9F-70">
          <mxGeometry relative="1" as="geometry">
            <mxPoint x="520" y="346" as="targetPoint" />
          </mxGeometry>
        </mxCell>
        <mxCell id="DUt0sESxxQH2__tYui9F-70" value="指纹" style="ellipse;whiteSpace=wrap;html=1;rounded=1;sketch=1;fillColor=#f5f5f5;strokeColor=#666666;fontColor=#333333;" vertex="1" parent="1">
          <mxGeometry x="400" y="327.5" width="50" height="37" as="geometry" />
        </mxCell>
      </root>
    </mxGraphModel>
  </diagram>
</mxfile>
